<?xml version="1.0" standalone="no"?>
<!DOCTYPE svg PUBLIC "-//W3C//DTD SVG 20010904//EN"
 "http://www.w3.org/TR/2001/REC-SVG-20010904/DTD/svg10.dtd">
<svg version="1.0" xmlns="http://www.w3.org/2000/svg"
 width="2000.000000pt" height="631.000000pt" viewBox="0 0 2000.000000 631.000000"
 preserveAspectRatio="xMidYMid meet">

<g transform="translate(0.000000,631.000000) scale(0.100000,-0.100000)"
fill="#000000" stroke="none">
<path d="M12470 6299 c-418 -26 -811 -257 -1143 -673 -416 -520 -667 -1177
-757 -1976 -54 -486 -50 -1039 11 -1508 76 -590 241 -1051 500 -1395 246 -327
547 -555 878 -664 298 -97 651 -101 925 -9 389 131 757 467 1057 966 305 508
477 1092 541 1845 19 222 16 815 -6 1045 -72 787 -260 1330 -604 1740 -378
452 -850 664 -1402 629z m243 -1029 c257 -80 469 -415 566 -899 111 -547 117
-1351 16 -1971 -82 -503 -271 -984 -476 -1214 -163 -183 -366 -223 -572 -114
-167 89 -335 335 -432 633 -188 574 -203 1719 -31 2445 122 517 349 946 570
1075 111 65 241 81 359 45z"/>
<path d="M8326 6270 c-432 -54 -807 -295 -1132 -727 -337 -447 -649 -1324
-769 -2158 -89 -616 -83 -1225 17 -1685 111 -518 374 -1000 691 -1268 330
-279 729 -407 1217 -389 625 23 1038 291 1372 892 163 292 322 737 416 1167
l20 88 -32 5 c-17 2 -211 18 -431 35 -220 17 -447 35 -505 40 -58 5 -108 6
-111 2 -4 -4 -23 -65 -44 -137 -140 -486 -230 -671 -410 -850 -110 -109 -216
-155 -360 -155 -282 1 -494 163 -621 474 -80 195 -126 455 -145 804 -25 490
43 1021 213 1642 203 743 425 1110 691 1137 133 14 239 -60 315 -218 95 -196
145 -531 160 -1064 l7 -240 140 -13 c77 -7 324 -29 548 -50 l409 -38 -7 150
c-31 731 -104 1310 -196 1572 -63 179 -187 409 -307 570 -164 219 -368 341
-672 399 -99 19 -373 28 -474 15z"/>
<path d="M18287 6133 c-219 -1079 -471 -2088 -794 -3181 -30 -103 -33 -102
-53 18 -59 365 -219 1205 -315 1655 -121 570 -275 1198 -299 1221 -6 6 -83 16
-171 23 -88 6 -268 21 -400 31 -515 42 -993 80 -1007 80 -18 0 -19 -3 -53
-340 -30 -302 -59 -674 -82 -1055 -24 -394 -24 -1968 0 -2870 35 -1313 40
-1460 46 -1467 6 -6 1112 -110 1117 -105 2 1 -6 164 -16 362 -47 884 -98 2188
-135 3450 -8 275 -17 587 -21 693 l-6 192 23 0 c13 0 29 -4 36 -8 21 -13 140
-550 428 -1927 192 -917 373 -1733 448 -2015 l22 -85 383 -34 c211 -18 385
-31 388 -28 13 12 216 712 328 1127 146 545 288 1117 505 2040 72 305 146 616
164 690 l33 135 34 -3 c19 -1 35 -4 35 -5 1 -1 -2 -148 -6 -327 -49 -2013 -99
-3258 -159 -3974 -11 -131 -19 -240 -18 -241 8 -7 1154 -111 1159 -106 16 14
54 733 70 1296 14 489 6 1934 -15 2925 -8 366 -20 892 -26 1170 -6 278 -13
528 -16 556 l-5 51 -192 17 c-106 9 -466 41 -801 71 -335 30 -610 55 -610 55
-1 0 -9 -39 -19 -87z"/>
<path d="M2440 6143 c-537 -19 -992 -53 -1495 -109 -309 -34 -784 -98 -790
-106 -6 -8 -67 -1010 -89 -1463 -39 -784 -41 -895 -41 -1990 1 -885 18 -2201
29 -2212 2 -2 299 -30 662 -64 604 -55 673 -60 824 -54 359 13 662 53 955 126
228 57 567 182 573 211 3 14 -134 918 -140 923 -2 2 -111 -16 -243 -40 -485
-88 -921 -151 -1300 -189 l-220 -22 -6 150 c-4 83 -7 415 -8 739 -1 554 0 587
17 587 9 0 103 9 207 20 465 48 988 87 1278 97 114 3 207 9 207 12 0 8 -148
868 -156 905 l-6 29 -207 -7 c-266 -8 -521 -23 -746 -42 -190 -15 -500 -50
-549 -60 l-29 -6 7 298 c4 165 13 488 21 719 8 231 15 427 15 436 0 13 30 17
203 27 444 26 662 34 1112 41 l470 6 3 523 2 522 -242 -2 c-134 -1 -277 -3
-318 -5z"/>
<path d="M4245 2663 c-401 -20 -731 -36 -733 -38 -4 -4 97 -907 103 -913 2 -2
334 12 737 32 772 38 964 43 1173 26 70 -6 130 -8 133 -6 4 5 -27 908 -31 913
-1 1 -54 6 -117 12 -182 17 -482 11 -1265 -26z"/>
</g>
</svg>
