<svg xmlns="http://www.w3.org/2000/svg" version="1.1" xmlns:xlink="http://www.w3.org/1999/xlink" xmlns:svgjs="http://svgjs.dev/svgjs" width="1500" height="318" viewBox="0 0 1500 318"><g transform="matrix(1,0,0,1,-0.9090909090909918,-0.5073193153799593)"><svg viewBox="0 0 396 84" data-background-color="#ffffff" preserveAspectRatio="xMidYMid meet" height="318" width="1500" xmlns="http://www.w3.org/2000/svg" xmlns:xlink="http://www.w3.org/1999/xlink"><g id="tight-bounds" transform="matrix(1,0,0,1,0.2400000000000091,0.13400887576074183)"><svg viewBox="0 0 395.52 83.73198224847853" height="83.73198224847853" width="395.52"><g><svg viewBox="0 0 395.52 83.73198224847853" height="83.73198224847853" width="395.52"><g><svg viewBox="0 0 395.52 83.73198224847853" height="83.73198224847853" width="395.52"><g id="textblocktransform"><svg viewBox="0 0 395.52 83.73198224847853" height="83.73198224847853" width="395.52" id="textblock"><g><svg viewBox="0 0 395.52 83.73198224847853" height="83.73198224847853" width="395.52"><g transform="matrix(1,0,0,1,0,0)"><svg width="395.52" viewBox="3.25 -35.5 173.191923828125 36.26" height="83.73198224847853" data-palette-color="#2a55e5"><g transform="matrix(1,0,0,1,0,0)"><g><svg width="8.14794921875" viewBox="4.42 -27.11 25.14 25.14" height="8.14794921875" data-palette-color="#2a55e5" id="scriptelement" x="168.293974609375" y="-35.5"><path d="M20.17-1.97L13.81-1.97 13.81-27.11 20.17-27.11 20.17-1.97ZM29.56-11.36L4.42-11.36 4.42-17.72 29.56-17.72 29.56-11.36Z" opacity="1" transform="matrix(1,0,0,1,0,0)" fill="#2a55e5" class="undefined-123" data-fill-palette-color="primary" id="yy-123"></path></svg></g></g><g class="wordmark-text-0" data-fill-palette-color="primary" id="text-0"><path d="M27.25-7.01L27.25 0 3.25 0 3.25-35.01 27.25-35.01 27.25-28 10.25-28 10.25-21 21.75-21 21.75-13.99 10.25-13.99 10.25-7.01 27.25-7.01ZM31.86-21L52.37-21 52.37-14.36 31.86-14.36 31.86-21ZM82.83-9.69L86.54-3.59Q84.1-1.49 81.07-0.37 78.05 0.76 74.8 0.76L74.8 0.76Q72.31 0.76 70 0.11 67.7-0.54 65.68-1.72 63.67-2.91 62.01-4.57 60.35-6.23 59.16-8.24 57.98-10.25 57.33-12.56 56.68-14.87 56.68-17.36L56.68-17.36Q56.68-19.85 57.33-22.17 57.98-24.49 59.16-26.5 60.35-28.52 62.01-30.18 63.67-31.84 65.68-33.02 67.7-34.2 70-34.85 72.31-35.5 74.8-35.5L74.8-35.5Q78.05-35.5 81.07-34.39 84.1-33.28 86.54-31.15L86.54-31.15 82.83-25.05Q81.29-26.71 79.19-27.6 77.09-28.49 74.8-28.49L74.8-28.49Q72.48-28.49 70.45-27.61 68.43-26.73 66.91-25.23 65.4-23.73 64.52-21.69 63.64-19.65 63.64-17.36L63.64-17.36Q63.64-15.06 64.52-13.05 65.4-11.04 66.91-9.52 68.43-8.01 70.45-7.13 72.48-6.25 74.8-6.25L74.8-6.25Q77.09-6.25 79.19-7.14 81.29-8.03 82.83-9.69L82.83-9.69ZM124.89-17.36L124.89-17.36Q124.89-14.87 124.25-12.56 123.6-10.25 122.43-8.24 121.26-6.23 119.6-4.57 117.94-2.91 115.93-1.72 113.93-0.54 111.61 0.11 109.29 0.76 106.8 0.76L106.8 0.76Q104.31 0.76 102.01 0.11 99.7-0.54 97.69-1.72 95.67-2.91 94.01-4.57 92.35-6.23 91.17-8.24 89.98-10.25 89.34-12.56 88.69-14.87 88.69-17.36L88.69-17.36Q88.69-19.85 89.34-22.17 89.98-24.49 91.17-26.49 92.35-28.49 94.01-30.15 95.67-31.81 97.69-32.98 99.7-34.16 102.01-34.8 104.31-35.45 106.8-35.45L106.8-35.45Q109.29-35.45 111.61-34.8 113.93-34.16 115.93-32.98 117.94-31.81 119.6-30.15 121.26-28.49 122.43-26.49 123.6-24.49 124.25-22.17 124.89-19.85 124.89-17.36ZM117.94-17.36L117.94-17.36Q117.94-19.65 117.06-21.69 116.18-23.73 114.68-25.23 113.18-26.73 111.14-27.61 109.1-28.49 106.8-28.49L106.8-28.49Q104.48-28.49 102.46-27.61 100.43-26.73 98.92-25.23 97.4-23.73 96.53-21.69 95.65-19.65 95.65-17.36L95.65-17.36Q95.65-15.06 96.53-13.05 97.4-11.04 98.92-9.52 100.43-8.01 102.46-7.13 104.48-6.25 106.8-6.25L106.8-6.25Q109.1-6.25 111.14-7.13 113.18-8.01 114.68-9.52 116.18-11.04 117.06-13.05 117.94-15.06 117.94-17.36ZM164.22-25L164.22 0 157.24 0 157.24-25Q157.24-25.73 156.96-26.37 156.68-27 156.2-27.48 155.73-27.95 155.09-28.22 154.46-28.49 153.73-28.49L153.73-28.49Q152.99-28.49 152.36-28.22 151.72-27.95 151.25-27.48 150.77-27 150.5-26.37 150.23-25.73 150.23-25L150.23-25 150.23 0 143.23 0 143.23-25Q143.23-25.73 142.96-26.37 142.69-27 142.21-27.48 141.74-27.95 141.1-28.22 140.47-28.49 139.74-28.49L139.74-28.49Q139-28.49 138.37-28.22 137.73-27.95 137.26-27.48 136.78-27 136.51-26.37 136.24-25.73 136.24-25L136.24-25 136.24 0 129.24 0 129.24-25Q129.24-27.17 130.06-29.09 130.87-31.01 132.3-32.43 133.73-33.86 135.65-34.68 137.56-35.5 139.74-35.5L139.74-35.5Q141.69-35.5 143.5-34.8 145.3-34.11 146.74-32.79L146.74-32.79Q148.18-34.11 149.98-34.8 151.77-35.5 153.73-35.5L153.73-35.5Q155.9-35.5 157.81-34.68 159.73-33.86 161.16-32.43 162.59-31.01 163.41-29.09 164.22-27.17 164.22-25L164.22-25Z" fill="#2a55e5" data-fill-palette-color="primary"></path></g></svg></g></svg></g></svg></g></svg></g></svg></g><defs></defs></svg><rect width="395.52" height="83.73198224847853" fill="none" stroke="none" visibility="hidden"></rect></g></svg></g></svg>